<svg width="50" height="50" viewBox="0 0 50 50" fill="none" xmlns="http://www.w3.org/2000/svg">
<path d="M27.9061 20.5875L20.7498 21.4844L20.4936 22.6719L21.8999 22.9312C22.8186 23.15 22.9999 23.4813 22.7999 24.3969L20.4936 35.2344C19.8874 38.0375 20.8217 39.3562 23.0186 39.3562C24.7217 39.3562 26.6999 38.5688 27.5967 37.4875L27.8717 36.1875C27.2467 36.7375 26.3342 36.9563 25.728 36.9563C24.8686 36.9563 24.5561 36.3531 24.778 35.2906L27.9061 20.5875ZM28.1249 14.0625C28.1249 14.8913 27.7956 15.6862 27.2096 16.2722C26.6235 16.8583 25.8287 17.1875 24.9999 17.1875C24.171 17.1875 23.3762 16.8583 22.7901 16.2722C22.2041 15.6862 21.8749 14.8913 21.8749 14.0625C21.8749 13.2337 22.2041 12.4388 22.7901 11.8528C23.3762 11.2667 24.171 10.9375 24.9999 10.9375C25.8287 10.9375 26.6235 11.2667 27.2096 11.8528C27.7956 12.4388 28.1249 13.2337 28.1249 14.0625Z" fill="black"/>
</svg>
