<svg width="54" height="54" viewBox="0 0 54 54" fill="none" xmlns="http://www.w3.org/2000/svg">
<path d="M27.108 6.13636L20.331 12.2727H33.831L27.108 6.13636ZM5.4 17.1818V49.0909H48.6V17.1818H5.4ZM27 0L40.5 12.2727H48.6C50.0322 12.2727 51.4057 12.7899 52.4184 13.7106C53.4311 14.6312 54 15.8798 54 17.1818V49.0909C54 50.3929 53.4311 51.6415 52.4184 52.5622C51.4057 53.4828 50.0322 54 48.6 54H5.4C3.96783 54 2.59432 53.4828 1.58162 52.5622C0.568927 51.6415 0 50.3929 0 49.0909V17.1818C0 15.8798 0.568927 14.6312 1.58162 13.7106C2.59432 12.7899 3.96783 12.2727 5.4 12.2727H13.5L27 0ZM13.5 44.1818V34.3636H27V44.1818H13.5ZM32.4 41.7273V24.5455H43.2V41.7273H32.4ZM10.8 29.4545V22.0909H24.3V29.4545H10.8Z" fill="black"/>
</svg>
