<svg width="32" height="32" viewBox="0 0 32 32" fill="#ff0000d9" xmlns="http://www.w3.org/2000/svg">
<path d="M11.9932 15H4.99316C4.19751 15 3.43445 14.6839 2.87184 14.1213C2.30923 13.5587 1.99316 12.7956 1.99316 12V10C1.99316 9.20435 2.30923 8.44129 2.87184 7.87868C3.43445 7.31607 4.19751 7 4.99316 7H9.99316V5C9.99316 4.73478 9.88781 4.48043 9.70027 4.29289C9.51273 4.10536 9.25838 4 8.99316 4H2.99316V2H8.99316C9.78881 2 10.5519 2.31607 11.1145 2.87868C11.6771 3.44129 11.9932 4.20435 11.9932 5V15ZM4.99316 9C4.72795 9 4.47359 9.10536 4.28606 9.29289C4.09852 9.48043 3.99316 9.73478 3.99316 10V12C3.99316 12.2652 4.09852 12.5196 4.28606 12.7071C4.47359 12.8946 4.72795 13 4.99316 13H9.99316V9H4.99316ZM19.9932 23V25C19.9932 25.2652 20.0985 25.5196 20.2861 25.7071C20.4736 25.8946 20.7279 26 20.9932 26H25.9932V22H20.9932C20.7279 22 20.4736 22.1054 20.2861 22.2929C20.0985 22.4804 19.9932 22.7348 19.9932 23Z" fill="black"/>
<path d="M1.99316 30H29.9932V2L1.99316 30ZM27.9932 28H20.9932C20.1975 28 19.4345 27.6839 18.8718 27.1213C18.3092 26.5587 17.9932 25.7956 17.9932 25V23C17.9932 22.2044 18.3092 21.4413 18.8718 20.8787C19.4345 20.3161 20.1975 20 20.9932 20H25.9932V18C25.9932 17.7348 25.8878 17.4804 25.7003 17.2929C25.5127 17.1054 25.2584 17 24.9932 17H18.9932V15H24.9932C25.7888 15 26.5519 15.3161 27.1145 15.8787C27.6771 16.4413 27.9932 17.2044 27.9932 18V28Z" fill="black"/>
</svg>
