<svg width="22" height="23" viewBox="0 0 22 23" fill="none" xmlns="http://www.w3.org/2000/svg">
<rect width="22" height="22" transform="translate(0 0.5)" fill="#F8F9FA"/>
<path d="M5.79634 17.8362C7.60634 16.5862 8.81634 14.6762 9.70634 12.3362C10.6063 10.0062 11.5663 8.00623 11.1463 5.70623C11.0863 5.34623 10.5763 4.97623 10.3163 5.00623C9.29634 5.06623 9.36634 6.21623 9.46634 6.90623C9.70634 8.61623 11.0263 10.6062 12.3063 12.4662C13.5763 14.3362 14.6263 14.6262 16.0863 14.7262C16.5863 14.7562 17.3363 14.5862 17.4563 14.1462C18.2263 11.3462 8.43634 13.6062 5.17634 16.2262C4.77634 16.5562 4.31634 17.2262 4.57634 17.6862C4.77634 18.0462 5.44634 18.0862 5.80634 17.8362H5.79634Z" fill="#F8F9FA" stroke="#ED8796" stroke-linecap="round" stroke-linejoin="round"/>
</svg>
