<svg width="24" height="24" viewBox="0 0 10 10" fill="none" xmlns="http://www.w3.org/2000/svg">
<g clip-path="url(#clip0_917_2900)">
<path fill-rule="evenodd" clip-rule="evenodd" d="M5.00021 5.58988L7.35729 7.94696C7.43588 8.02286 7.54113 8.06486 7.65038 8.06391C7.75963 8.06296 7.86413 8.01914 7.94139 7.94189C8.01864 7.86463 8.06246 7.76013 8.06341 7.65088C8.06436 7.54163 8.02236 7.43638 7.94646 7.3578L5.58938 5.00071L7.94646 2.64363C8.02236 2.56505 8.06436 2.45979 8.06341 2.35055C8.06246 2.2413 8.01864 2.13679 7.94139 2.05954C7.86413 1.98229 7.75963 1.93847 7.65038 1.93752C7.54113 1.93657 7.43588 1.97856 7.35729 2.05446L5.00021 4.41155L2.64313 2.05446C2.56419 1.98044 2.45955 1.94003 2.35135 1.94179C2.24315 1.94355 2.13987 1.98733 2.06338 2.06388C1.98689 2.14042 1.94318 2.24373 1.9415 2.35193C1.93982 2.46013 1.9803 2.56474 2.05438 2.64363L4.41104 5.00071L2.05396 7.3578C2.01417 7.39623 1.98242 7.44221 1.96059 7.49304C1.93875 7.54388 1.92725 7.59855 1.92677 7.65388C1.92629 7.7092 1.93684 7.76407 1.95779 7.81528C1.97874 7.86648 2.00967 7.91301 2.0488 7.95213C2.08792 7.99125 2.13444 8.02219 2.18565 8.04314C2.23685 8.06409 2.29172 8.07463 2.34704 8.07415C2.40237 8.07367 2.45704 8.06218 2.50788 8.04034C2.55871 8.0185 2.60469 7.98676 2.64313 7.94696L5.00021 5.58988Z" fill="#212529"/>
</g>
<defs>
<clipPath id="clip0_917_2900">
<rect width="10" height="10" fill="white"/>
</clipPath>
</defs>
</svg>
