<svg width="16" height="16" viewBox="0 0 16 16" fill="none" xmlns="http://www.w3.org/2000/svg">
<path fill-rule="evenodd" clip-rule="evenodd" d="M6.42516 10H7.24816V4H6.42516V6.61H3.81516V4H2.99316V10H3.81616V7.394H6.42616L6.42516 10ZM12.0932 10H12.9932L11.7132 7.37C11.8438 7.312 11.9735 7.23533 12.1022 7.14C12.3731 6.93947 12.5771 6.66162 12.6872 6.343C12.7512 6.17233 12.7832 5.979 12.7832 5.763C12.7852 5.57418 12.7575 5.38622 12.7012 5.206C12.6515 5.04678 12.5773 4.89629 12.4812 4.76C12.396 4.63104 12.2914 4.51602 12.1712 4.419C11.9558 4.24212 11.7042 4.11478 11.4342 4.046C11.3226 4.01764 11.2082 4.0022 11.0932 4H8.63316V10H9.45716V7.518H10.9242L12.0932 10ZM11.4122 6.68C11.3182 6.71449 11.2192 6.73308 11.1192 6.735H9.45616V4.787H11.1192C11.3342 4.79302 11.5394 4.87853 11.6952 5.027C11.796 5.12072 11.8756 5.23503 11.9284 5.3622C11.9812 5.48936 12.006 5.6264 12.0012 5.764C12.0012 5.932 11.9722 6.07767 11.9142 6.201C11.8662 6.31018 11.7971 6.40875 11.7107 6.49098C11.6244 6.57321 11.5236 6.63746 11.4122 6.68ZM12.9932 12H2.99316V13H12.9932V12Z" fill="black"/>
</svg>
