<svg width="28" height="24" viewBox="0 0 28 24" fill="none" xmlns="http://www.w3.org/2000/svg">
<path d="M5 0.75C3.80653 0.75 2.66193 1.22411 1.81802 2.06802C0.974106 2.91193 0.5 4.05653 0.5 5.25V5.70225L14 12.972L27.5 5.7045V5.25C27.5 4.05653 27.0259 2.91193 26.182 2.06802C25.3381 1.22411 24.1935 0.75 23 0.75H5ZM27.5 8.25825L14.5333 15.24C14.3694 15.3282 14.1861 15.3744 14 15.3744C13.8139 15.3744 13.6306 15.3282 13.4668 15.24L0.5 8.25825V18.75C0.5 19.9435 0.974106 21.0881 1.81802 21.932C2.66193 22.7759 3.80653 23.25 5 23.25H23C24.1935 23.25 25.3381 22.7759 26.182 21.932C27.0259 21.0881 27.5 19.9435 27.5 18.75V8.25825Z" fill="#FFF"/>
</svg>
