<svg width="50" height="50" viewBox="0 0 50 50" fill="none" xmlns="http://www.w3.org/2000/svg">
<path d="M46.0553 10.9645C46.0553 10.478 45.6608 10.084 45.1748 10.084L45.1718 10.0845V10.082H22.2328V10.089C22.0009 10.0902 21.7788 10.1829 21.6149 10.3469C21.4509 10.511 21.3584 10.7331 21.3573 10.965L21.3568 14.136C21.3563 14.151 21.3523 14.1645 21.3523 14.1795C21.3523 14.6655 21.7463 15.0595 22.2328 15.06H45.1718L45.1748 15.0605C45.6613 15.0605 46.0553 14.666 46.0553 14.18V10.9645ZM46.0553 18.415C46.0553 17.9285 45.6608 17.5345 45.1748 17.5345L45.1718 17.535V17.5325H22.2328V17.5395C22.0009 17.5407 21.7788 17.6334 21.6149 17.7974C21.4509 17.9615 21.3584 18.1836 21.3573 18.4155L21.3568 21.587C21.3563 21.602 21.3523 21.6155 21.3523 21.6305C21.3523 22.1165 21.7463 22.5105 22.2328 22.511H45.1718H45.1748C45.6613 22.511 46.0553 22.1165 46.0553 21.6305V18.415ZM16.3743 10.9625C16.3744 10.8469 16.3516 10.7324 16.3074 10.6255C16.2632 10.5186 16.1983 10.4216 16.1166 10.3398C16.0348 10.258 15.9377 10.1931 15.8308 10.1489C15.724 10.1047 15.6095 10.082 15.4938 10.082C15.4723 10.082 15.4518 10.087 15.4308 10.0885H4.88881C4.86781 10.087 4.84731 10.082 4.82581 10.082C4.33931 10.082 3.94531 10.4765 3.94531 10.9625V21.63C3.94531 22.116 4.33931 22.5105 4.82581 22.5105H15.4938C15.9803 22.5105 16.3743 22.116 16.3743 21.63V10.9625ZM46.0553 28.372C46.0553 27.8855 45.6608 27.4915 45.1748 27.4915L45.1718 27.492V27.4895H22.2328V27.4965C22.0009 27.4977 21.7788 27.5904 21.6149 27.7544C21.4509 27.9185 21.3584 28.1406 21.3573 28.3725L21.3568 31.544C21.3563 31.559 21.3523 31.5725 21.3523 31.5875C21.3523 32.0735 21.7463 32.468 22.2328 32.468H45.1718H45.1748C45.6613 32.468 46.0553 32.0735 46.0553 31.5875V28.372ZM46.0553 35.8225C46.0553 35.336 45.6608 34.942 45.1748 34.942L45.1718 34.9425V34.94H22.2328V34.947C22.0009 34.9482 21.7788 35.0409 21.6149 35.2049C21.4509 35.369 21.3584 35.5911 21.3573 35.823L21.3568 38.994C21.3563 39.009 21.3523 39.0225 21.3523 39.0375C21.3523 39.5235 21.7463 39.918 22.2328 39.918H45.1718H45.1748C45.6613 39.918 46.0553 39.5235 46.0553 39.0375V35.8225ZM16.3743 28.37C16.3743 27.8835 15.9803 27.489 15.4938 27.489C15.4723 27.489 15.4518 27.494 15.4308 27.4955H4.88881C4.86781 27.494 4.84731 27.489 4.82581 27.489C4.33931 27.489 3.94531 27.8835 3.94531 28.37V39.0375C3.94531 39.5235 4.33981 39.918 4.82581 39.918H15.4938C15.9803 39.918 16.3743 39.5235 16.3743 39.0375V28.37Z" fill="white"/>
</svg>
