<svg width="80" height="80" viewBox="0 0 80 80" fill="none" xmlns="http://www.w3.org/2000/svg">
<g clip-path="url(#clip0_9_28)">
<rect width="80" height="80" rx="40" fill="white"/>
<circle cx="40" cy="40" r="40" fill="#D9D9D9"/>
<circle cx="40" cy="40" r="40" fill="#782F40"/>
<path d="M38.3339 -4.7803L92.6018 9.83537L69.6631 95.0067L16.1123 77.3871C10.2078 79.7961 14.0231 54.1028 20.3194 30.6526C26.1003 9.12238 33.9725 -10.517 38.3339 -4.7803Z" fill="white"/>
<path d="M93 0H40.0519C40.0519 0 34.5 5.5 33 29.5C31.5 53.5 35.0568 61 35.0568 61H93V0Z" fill="black"/>
<path d="M-0.68667 31.5H83.5L83.8773 33H-1L-0.68667 31.5Z" fill="white"/>
<path d="M2.2325 25H80.8225L81.5 26.5H1.66234L2.2325 25Z" fill="white"/>
<path d="M2.42255 18.5H81.0125L81.6901 20H1.8524L2.42255 18.5Z" fill="white"/>
<path d="M4.91001 12H83.5L84.1775 13.5H4.33985L4.91001 12Z" fill="white"/>
<path d="M8.41001 5.5H87L87.6775 7H7.83985L8.41001 5.5Z" fill="white"/>
<rect x="49" y="60.5" width="3.5" height="17.5" fill="black"/>
<rect x="55.5" y="60.5" width="3.5" height="17.5" fill="black"/>
<rect x="64.5" y="60.5" width="3.5" height="17.5" fill="black"/>
<rect x="70" y="60.5" width="3.5" height="17.5" fill="black"/>
</g>
<defs>
<clipPath id="clip0_9_28">
<rect width="80" height="80" rx="40" fill="white"/>
</clipPath>
</defs>
</svg>
