<svg width="24" height="24" viewBox="0 0 24 24" fill="none" xmlns="http://www.w3.org/2000/svg">
<path d="M6.99316 19V17H14.0932C15.1432 17 16.0558 16.6667 16.8312 16C17.6065 15.3333 17.9938 14.5 17.9932 13.5C17.9925 12.5 17.6052 11.6667 16.8312 11C16.0572 10.3333 15.1445 10 14.0932 10H7.79316L10.3932 12.6L8.99316 14L3.99316 9L8.99316 4L10.3932 5.4L7.79316 8H14.0932C15.7098 8 17.0975 8.525 18.2562 9.575C19.4148 10.625 19.9938 11.9333 19.9932 13.5C19.9925 15.0667 19.4135 16.375 18.2562 17.425C17.0988 18.475 15.7112 19 14.0932 19H6.99316Z" fill="black"/>
</svg>
