<svg width="24" height="24" viewBox="0 0 24 24" fill="none" xmlns="http://www.w3.org/2000/svg">
<path d="M9.89316 19C8.2765 19 6.88883 18.475 5.73016 17.425C4.5715 16.375 3.9925 15.0667 3.99316 13.5C3.99383 11.9333 4.57316 10.625 5.73116 9.575C6.88916 8.525 8.2765 8 9.89316 8H16.1932L13.5932 5.4L14.9932 4L19.9932 9L14.9932 14L13.5932 12.6L16.1932 10H9.89316C8.84316 10 7.9305 10.3333 7.15516 11C6.37983 11.6667 5.9925 12.5 5.99316 13.5C5.99383 14.5 6.3815 15.3333 7.15616 16C7.93083 16.6667 8.84316 17 9.89316 17H16.9932V19H9.89316Z" fill="black"/>
</svg>
