<svg width="422" height="300" viewBox="0 0 422 300" fill="none" xmlns="http://www.w3.org/2000/svg">
<path d="M409.156 38.9994C379.048 8.06238 242.935 1.49998 227.567 0.65624L210.317 0V190.216C206.326 188.293 202.077 186.569 197.616 185.06C181.865 180.32 164.672 177.536 147.074 176.876C129.475 176.215 111.835 177.692 95.2168 181.216C30.6099 193.685 -10.9455 229.309 2.54038 260.621C5.546 267.243 10.8008 273.424 17.9772 278.779C25.1536 284.134 34.0979 288.548 44.2526 291.746C61.6662 297.291 81.1335 300.128 100.862 299.996C116.74 299.994 132.516 298.475 147.592 295.496C205.613 284.34 244.816 254.527 242.621 225.934V60.8429C258.302 61.9678 279.786 63.9366 302.523 66.8428C325.029 68.8952 346.652 73.5439 366.189 80.5301C381.871 86.7175 372.148 98.3423 371.364 99.2798C363.869 106.084 355.139 112.372 345.333 118.03C342.481 119.72 340.823 122.001 340.701 124.401C340.579 126.801 342.001 129.138 344.676 130.929C347.351 132.721 351.073 133.83 355.076 134.029C359.079 134.228 363.057 133.501 366.189 131.998C369.482 129.842 453.377 84.3738 409.156 38.9994Z" fill="#CC8648"/>
</svg>
