<svg width="36" height="36" viewBox="0 0 36 36" fill="none" xmlns="http://www.w3.org/2000/svg">
<path d="M31.1611 22.5421L24.518 19.5651C24.217 19.4361 23.8886 19.3843 23.5625 19.4142C23.2364 19.4442 22.9229 19.555 22.6505 19.7367C22.6229 19.7545 22.5966 19.7742 22.5717 19.7957L19.0997 22.7489C19.0637 22.7685 19.0236 22.7795 18.9826 22.781C18.9416 22.7824 18.9008 22.7743 18.8635 22.7573C16.6317 21.6801 14.3199 19.3823 13.2385 17.1815C13.2204 17.1447 13.2111 17.1043 13.2111 17.0634C13.2111 17.0224 13.2204 16.982 13.2385 16.9453L16.2014 13.4296C16.2227 13.4037 16.2424 13.3764 16.2605 13.3481C16.4396 13.0746 16.5478 12.7608 16.5753 12.435C16.6028 12.1092 16.5487 11.7817 16.418 11.482L13.462 4.85011C13.2942 4.45863 13.0039 4.13214 12.6347 3.91966C12.2655 3.70718 11.8374 3.62017 11.4145 3.67168C9.5769 3.91327 7.89008 4.81572 6.66933 6.21038C5.44858 7.60505 4.77741 9.3965 4.78127 11.25C4.78127 22.2609 13.7391 31.2187 24.75 31.2187C26.6034 31.2223 28.3947 30.551 29.7893 29.3303C31.1839 28.1096 32.0864 26.423 32.3283 24.5854C32.3797 24.1646 32.2939 23.7384 32.0836 23.3702C31.8733 23.0021 31.5497 22.7116 31.1611 22.5421ZM24.75 29.5312C14.67 29.5312 6.46877 21.33 6.46877 11.25C6.46407 9.80705 6.98487 8.41178 7.93386 7.32485C8.88286 6.23791 10.1951 5.53368 11.6255 5.34371H11.6578C11.7145 5.34477 11.7695 5.36292 11.8157 5.39579C11.8619 5.42867 11.897 5.47472 11.9166 5.52793L14.8838 12.1528C14.9007 12.1896 14.9095 12.2297 14.9095 12.2702C14.9095 12.3107 14.9007 12.3508 14.8838 12.3876L11.9152 15.9117C11.8931 15.9369 11.8729 15.9637 11.8547 15.9918C11.6689 16.2754 11.5596 16.6022 11.5371 16.9404C11.5147 17.2787 11.58 17.617 11.7267 17.9226C12.9741 20.4764 15.5475 23.0301 18.1294 24.2775C18.4368 24.4234 18.7768 24.4871 19.1161 24.4624C19.4555 24.4378 19.7827 24.3256 20.0658 24.1368C20.0925 24.1186 20.1192 24.0989 20.1445 24.0778L23.6152 21.1246C23.6494 21.1062 23.6873 21.0954 23.7261 21.093C23.765 21.0906 23.8039 21.0966 23.8402 21.1106L30.4847 24.0876C30.539 24.1107 30.5846 24.1503 30.6151 24.2008C30.6457 24.2513 30.6596 24.3101 30.6549 24.3689C30.4659 25.7999 29.7623 27.1131 28.6756 28.0632C27.5889 29.0132 26.1935 29.5351 24.75 29.5312Z" fill="#CC8648"/>
</svg>
