<svg width="40" height="50" viewBox="0 0 40 50" fill="none" xmlns="http://www.w3.org/2000/svg">
<path fill-rule="evenodd" clip-rule="evenodd" d="M14.2857 0C13.3385 0 12.4301 0.376274 11.7603 1.04605C11.0906 1.71582 10.7143 2.62423 10.7143 3.57143V5.37857C10.7199 6.32206 11.0987 7.22497 11.7679 7.89011C12.437 8.55526 13.3422 8.92859 14.2857 8.92857H25C25.9472 8.92857 26.8556 8.5523 27.5254 7.88252C28.1952 7.21275 28.5714 6.30434 28.5714 5.35714V3.57143C28.5714 2.62423 28.1952 1.71582 27.5254 1.04605C26.8556 0.376274 25.9472 0 25 0L14.2857 0ZM7.14286 3.57143H5.35714C3.93634 3.57143 2.57373 4.13584 1.56907 5.1405C0.564412 6.14516 0 7.50777 0 8.92857V44.6429C0 46.0637 0.564412 47.4263 1.56907 48.4309C2.57373 49.4356 3.93634 50 5.35714 50H33.9286C35.3494 50 36.712 49.4356 37.7166 48.4309C38.7213 47.4263 39.2857 46.0637 39.2857 44.6429V8.92857C39.2857 7.50777 38.7213 6.14516 37.7166 5.1405C36.712 4.13584 35.3494 3.57143 33.9286 3.57143H32.1429V5.35714C32.1429 7.25155 31.3903 9.06836 30.0508 10.4079C28.7112 11.7475 26.8944 12.5 25 12.5H14.2857C12.3913 12.5 10.5745 11.7475 9.23495 10.4079C7.89541 9.06836 7.14286 7.25155 7.14286 5.35714V3.57143ZM10.8464 23.4607C10.8275 23.093 10.8837 22.7254 11.0114 22.38C11.1391 22.0347 11.3357 21.719 11.5893 21.4521C11.8428 21.1852 12.148 20.9726 12.4864 20.8274C12.8247 20.6821 13.189 20.6072 13.5571 20.6072C13.9253 20.6072 14.2896 20.6821 14.6279 20.8274C14.9662 20.9726 15.2715 21.1852 15.525 21.4521C15.7786 21.719 15.9752 22.0347 16.1029 22.38C16.2306 22.7254 16.2867 23.093 16.2679 23.4607C16.2322 24.1556 15.931 24.8102 15.4266 25.2894C14.9221 25.7686 14.2529 26.0358 13.5571 26.0358C12.8614 26.0358 12.1922 25.7686 11.6877 25.2894C11.1833 24.8102 10.8821 24.1556 10.8464 23.4607ZM13.5571 16.2821C11.6533 16.2821 9.82737 17.0385 8.48113 18.3847C7.13488 19.7309 6.37857 21.5568 6.37857 23.4607C6.37857 25.3646 7.13488 27.1905 8.48113 28.5367C9.82737 29.883 11.6533 30.6393 13.5571 30.6393C15.461 30.6393 17.2869 29.883 18.6332 28.5367C19.9794 27.1905 20.7357 25.3646 20.7357 23.4607C20.7357 21.5568 19.9794 19.7309 18.6332 18.3847C17.2869 17.0385 15.461 16.2821 13.5571 16.2821ZM31.7714 31.7536C31.9788 31.9609 32.1432 32.2069 32.2554 32.4778C32.3677 32.7487 32.4254 33.039 32.4254 33.3321C32.4254 33.6253 32.3677 33.9156 32.2554 34.1865C32.1432 34.4573 31.9788 34.7034 31.7714 34.9107L28.8786 37.8L31.7643 40.6821C31.9716 40.8894 32.136 41.1355 32.2482 41.4064C32.3604 41.6772 32.4182 41.9675 32.4182 42.2607C32.4182 42.5539 32.3604 42.8442 32.2482 43.115C32.136 43.3859 31.9716 43.632 31.7643 43.8393C31.557 44.0466 31.3109 44.211 31.04 44.3232C30.7692 44.4354 30.4789 44.4932 30.1857 44.4932C29.8925 44.4932 29.6022 44.4354 29.3314 44.3232C29.0605 44.211 28.8144 44.0466 28.6071 43.8393L25.725 40.9536L22.8429 43.8393C22.6356 44.0466 22.3895 44.211 22.1186 44.3232C21.8478 44.4354 21.5575 44.4932 21.2643 44.4932C20.9711 44.4932 20.6808 44.4354 20.41 44.3232C20.1391 44.211 19.893 44.0466 19.6857 43.8393C19.4784 43.632 19.314 43.3859 19.2018 43.115C19.0896 42.8442 19.0318 42.5539 19.0318 42.2607C19.0318 41.9675 19.0896 41.6772 19.2018 41.4064C19.314 41.1355 19.4784 40.8894 19.6857 40.6821L22.5679 37.8L19.6786 34.9071C19.4614 34.7021 19.2875 34.4556 19.1673 34.1822C19.0471 33.9088 18.983 33.6141 18.9788 33.3155C18.9745 33.0168 19.0303 32.7204 19.1427 32.4437C19.2551 32.167 19.4219 31.9157 19.6332 31.7046C19.8445 31.4935 20.096 31.327 20.3729 31.2149C20.6497 31.1028 20.9462 31.0474 21.2448 31.052C21.5434 31.0565 21.8381 31.121 22.1114 31.2415C22.3847 31.362 22.631 31.5361 22.8357 31.7536L25.725 34.6429L28.6143 31.75C28.8216 31.5427 29.0677 31.3782 29.3385 31.266C29.6094 31.1538 29.8997 31.096 30.1929 31.096C30.486 31.096 30.7763 31.1538 31.0472 31.266C31.3181 31.3782 31.5641 31.5462 31.7714 31.7536Z" fill="black"/>
</svg>
