<svg width="24" height="24" viewBox="0 0 24 24" fill="none" xmlns="http://www.w3.org/2000/svg">
<path d="M5.99316 15H20.9932M20.9932 19H5.99316M14.9932 11H20.9932M20.9932 7H14.9932M8.99316 9H9.99316C10.1909 9 10.3843 9.05865 10.5487 9.16853C10.7132 9.27841 10.8414 9.43459 10.917 9.61732C10.9927 9.80004 11.0125 10.0011 10.9739 10.1951C10.9354 10.3891 10.8401 10.5673 10.7003 10.7071C10.5604 10.847 10.3822 10.9422 10.1883 10.9808C9.99427 11.0194 9.79321 10.9996 9.61048 10.9239C9.42775 10.8482 9.27158 10.72 9.16169 10.5556C9.05181 10.3911 8.99316 10.1978 8.99316 10V7.5C8.99316 6.96957 9.20388 6.46086 9.57895 6.08579C9.95402 5.71071 10.4627 5.5 10.9932 5.5M2.99316 9H3.99316C4.19095 9 4.38429 9.05865 4.54873 9.16853C4.71318 9.27841 4.84136 9.43459 4.91704 9.61732C4.99273 9.80004 5.01253 10.0011 4.97395 10.1951C4.93536 10.3891 4.84012 10.5673 4.70027 10.7071C4.56042 10.847 4.38224 10.9422 4.18825 10.9808C3.99427 11.0194 3.79321 10.9996 3.61048 10.9239C3.42775 10.8482 3.27158 10.72 3.16169 10.5556C3.05181 10.3911 2.99316 10.1978 2.99316 10V7.5C2.99316 6.96957 3.20388 6.46086 3.57895 6.08579C3.95402 5.71071 4.46273 5.5 4.99316 5.5" stroke="black" stroke-width="2" stroke-linecap="round" stroke-linejoin="round"/>
</svg>
