<svg width="16" height="14" viewBox="0 0 16 14" fill="none" xmlns="http://www.w3.org/2000/svg">
<path d="M0.5 8.90039C0.632608 8.90039 0.759785 8.95307 0.853553 9.04684C0.947322 9.14061 1 9.26778 1 9.40039V11.9004C1 12.1656 1.10536 12.42 1.29289 12.6075C1.48043 12.795 1.73478 12.9004 2 12.9004H14C14.2652 12.9004 14.5196 12.795 14.7071 12.6075C14.8946 12.42 15 12.1656 15 11.9004V9.40039C15 9.26778 15.0527 9.14061 15.1464 9.04684C15.2402 8.95307 15.3674 8.90039 15.5 8.90039C15.6326 8.90039 15.7598 8.95307 15.8536 9.04684C15.9473 9.14061 16 9.26778 16 9.40039V11.9004C16 12.4308 15.7893 12.9395 15.4142 13.3146C15.0391 13.6897 14.5304 13.9004 14 13.9004H2C1.46957 13.9004 0.960859 13.6897 0.585786 13.3146C0.210714 12.9395 0 12.4308 0 11.9004V9.40039C0 9.26778 0.0526784 9.14061 0.146447 9.04684C0.240215 8.95307 0.367392 8.90039 0.5 8.90039Z" fill="white"/>
<path d="M7.6459 0.146894C7.69234 0.100331 7.74752 0.0633877 7.80827 0.0381812C7.86901 0.0129748 7.93413 0 7.9999 0C8.06567 0 8.13079 0.0129748 8.19153 0.0381812C8.25228 0.0633877 8.30745 0.100331 8.3539 0.146894L11.3539 3.14689C11.4478 3.24078 11.5005 3.36812 11.5005 3.50089C11.5005 3.63367 11.4478 3.76101 11.3539 3.85489C11.26 3.94878 11.1327 4.00153 10.9999 4.00153C10.8671 4.00153 10.7398 3.94878 10.6459 3.85489L8.4999 1.70789V10.5009C8.4999 10.6335 8.44722 10.7607 8.35345 10.8544C8.25969 10.9482 8.13251 11.0009 7.9999 11.0009C7.86729 11.0009 7.74011 10.9482 7.64635 10.8544C7.55258 10.7607 7.4999 10.6335 7.4999 10.5009V1.70789L5.3539 3.85489C5.30741 3.90138 5.25222 3.93826 5.19148 3.96342C5.13074 3.98858 5.06564 4.00153 4.9999 4.00153C4.93416 4.00153 4.86906 3.98858 4.80832 3.96342C4.74758 3.93826 4.69239 3.90138 4.6459 3.85489C4.59941 3.80841 4.56254 3.75322 4.53738 3.69248C4.51222 3.63174 4.49927 3.56664 4.49927 3.50089C4.49927 3.43515 4.51222 3.37005 4.53738 3.30931C4.56254 3.24857 4.59941 3.19338 4.6459 3.14689L7.6459 0.146894Z" fill="white"/>
</svg>
