<svg width="714" height="232" viewBox="0 0 714 232" fill="none" xmlns="http://www.w3.org/2000/svg">
<path d="M90.2557 28.2557H139.048C156.52 28.2557 172.003 31.9489 185.497 39.3352C199.062 46.7216 209.68 57.1264 217.351 70.5497C225.092 83.902 228.963 99.598 228.963 117.638C228.963 135.109 225.092 150.344 217.351 163.341C209.68 176.338 199.062 186.459 185.497 193.703C172.003 200.876 156.52 204.463 139.048 204.463H90.2557C72.7131 204.463 57.1591 200.912 43.5938 193.81C30.0284 186.636 19.375 176.551 11.6335 163.554C3.96307 150.557 0.127841 135.216 0.127841 117.531C0.127841 99.4915 3.99858 83.7955 11.7401 70.4432C19.5526 57.0199 30.2415 46.6506 43.8068 39.3352C57.3722 31.9489 72.8551 28.2557 90.2557 28.2557ZM90.2557 66.821C80.8807 66.821 72.6065 68.7031 65.4332 72.4673C58.331 76.1605 52.7912 81.7713 48.8139 89.2997C44.8366 96.8281 42.848 106.239 42.848 117.531C42.848 128.327 44.8722 137.311 48.9205 144.484C53.0398 151.658 58.6506 157.02 65.7528 160.571C72.8551 164.122 81.0227 165.898 90.2557 165.898H139.368C148.672 165.898 156.804 164.087 163.764 160.464C170.795 156.842 176.229 151.445 180.064 144.271C183.97 137.098 185.923 128.22 185.923 117.638C185.923 106.345 183.97 96.9347 180.064 89.4062C176.229 81.8778 170.795 76.2315 163.764 72.4673C156.804 68.7031 148.672 66.821 139.368 66.821H90.2557ZM136.491 0.982956V231.949H92.706V0.982956H136.491ZM262.947 4.81818H319.837L379.922 151.409H382.479L442.564 4.81818H499.453V223H454.709V80.9901H452.898L396.435 221.935H365.966L309.503 80.4574H307.692V223H262.947V4.81818ZM561.003 225.983V188.483H572.828C578.723 188.483 583.482 187.773 587.104 186.352C590.726 184.861 593.603 182.695 595.733 179.854C597.935 176.942 599.782 173.32 601.273 168.987L603.936 161.849L524.675 4.81818H572.402L623.752 112.205L666.685 4.81818H713.773L638.56 180.173C634.938 188.27 630.641 195.798 625.669 202.759C620.769 209.719 614.483 215.33 606.813 219.591C599.142 223.852 589.341 225.983 577.409 225.983H561.003Z" fill="#CC8648"/>
</svg>
